<svg id="Layer_1" data-name="Layer 1" xmlns="http://www.w3.org/2000/svg" viewBox="0 0 124 15.7"><defs><style>.cls-1{fill:#f37324;}.cls-2{fill:none;}</style></defs><title>vector_elements</title><path class="cls-1" d="M64.8,3.9a0.47,0.47,0,0,1,.5.5,0.47,0.47,0,0,1-.5.5H64.2L61,12c-0.9,2.1-1.7,3.7-4.1,3.7-0.5,0-.9-0.1-1.2-0.1a0.56,0.56,0,1,1,.2-1.1c0.3,0,.7.1,1,0.1a2.06,2.06,0,0,0,1.7-.7,5.51,5.51,0,0,0,.9-1.4l0.2-.4-3-7.2h-3V11H55a0.5,0.5,0,0,1,0,1H51.1a0.5,0.5,0,0,1,0-1h1.2V4.9H51.1a0.47,0.47,0,0,1-.5-0.5,0.47,0.47,0,0,1,.5-0.5h1.2V2.8a2.68,2.68,0,0,1,3-2.8,5.41,5.41,0,0,1,1.9.3,0.59,0.59,0,1,1-.4,1.1,5.9,5.9,0,0,0-1.4-.2A1.6,1.6,0,0,0,53.7,3V4H59a0.47,0.47,0,0,1,.5.5A0.47,0.47,0,0,1,59,5H58.1l2.4,5.8L62.9,5h-1a0.47,0.47,0,0,1-.5-0.5A0.47,0.47,0,0,1,61.9,4h2.9V3.9h0ZM47.1,0.4a1.13,1.13,0,0,1,1.2,1.1,1.13,1.13,0,0,1-1.2,1.1,1.2,1.2,0,0,1-1.2-1.1A1.13,1.13,0,0,1,47.1.4m0.8,10.7H49a0.5,0.5,0,0,1,0,1H45.3a0.5,0.5,0,0,1,0-1h1.1V5H45.3a0.47,0.47,0,0,1-.5-0.5A0.47,0.47,0,0,1,45.3,4h2a0.47,0.47,0,0,1,.5.5v6.6h0.1Zm-5.6,0h1.1a0.5,0.5,0,0,1,0,1H39.7a0.5,0.5,0,0,1,0-1h1.1V1.2H39.7A0.47,0.47,0,0,1,39.2.7,0.47,0.47,0,0,1,39.7.2h2a0.47,0.47,0,0,1,.5.5l0.1,10.4h0ZM36.8,8c0-2.1-1.2-3.1-2.7-3.1s-2.7,1-2.7,3.1,1.2,3.1,2.7,3.1,2.7-1,2.7-3.1M31.4,5.3a3.37,3.37,0,0,1,2.9-1.5c2.3,0,3.8,1.6,3.8,4.2s-1.5,4.3-3.9,4.3a3.3,3.3,0,0,1-2.9-1.4v3.8h1.3a0.5,0.5,0,0,1,0,1H29a0.5,0.5,0,0,1,0-1h1V5H29.2a0.47,0.47,0,0,1-.5-0.5A0.47,0.47,0,0,1,29.2,4h1.7a0.47,0.47,0,0,1,.5.5V5.3ZM6.5,1.6H6L4.5,6.5H7.9ZM13,4.9a0.47,0.47,0,0,1-.5-0.5A0.47,0.47,0,0,1,13,3.9h1.7a0.47,0.47,0,0,1,.5.5V5.2a5,5,0,0,1,3.3-1.5,2.11,2.11,0,0,1,2.3,1.5,4.89,4.89,0,0,1,3.4-1.5A2.14,2.14,0,0,1,26.6,6v4.9h0.9a0.5,0.5,0,0,1,0,1H24.2a0.5,0.5,0,0,1,0-1h1V6.2a1.19,1.19,0,0,0-1.4-1.3,4.6,4.6,0,0,0-2.9,1.4v4.8h0.9a0.5,0.5,0,0,1,0,1H18.5a0.5,0.5,0,0,1,0-1h1V6.2a1.19,1.19,0,0,0-1.4-1.3,4.6,4.6,0,0,0-2.9,1.4v4.8h1a0.5,0.5,0,0,1,0,1H8.3a0.5,0.5,0,1,1,0-1H9.5L8.4,7.5H4.3L3.2,11.1H4.3a0.5,0.5,0,1,1,0,1H0.5a0.5,0.5,0,0,1,0-1H1.6L4.7,1.6H3.3a0.47,0.47,0,0,1-.5-0.5A0.47,0.47,0,0,1,3.3.6H7.1a0.75,0.75,0,0,1,.7.5l3.3,10h2.8V5L13,4.9h0Z"/><path d="M72.9,1.3A9.86,9.86,0,0,0,70.5,1c-1.6,0-3.2.6-3.2,2.3,0,3.4,6.9,1.8,6.9,5.6,0,2-1.4,3.3-4.5,3.3a7.1,7.1,0,0,1-2.7-.5,0.55,0.55,0,0,1-.4-0.6V9.2A0.35,0.35,0,0,1,67,8.9a0.42,0.42,0,0,1,.4.3L67.5,11a8.49,8.49,0,0,0,2.4.5c1.8,0,3.6-.7,3.6-2.6A2,2,0,0,0,72,7c-2-.9-5.4-0.9-5.4-3.7,0-2.1,1.9-2.9,4-2.9a8.25,8.25,0,0,1,2.8.4,0.55,0.55,0,0,1,.4.6V3.3a0.35,0.35,0,0,1-.4.3A0.42,0.42,0,0,1,73,3.3Z"/><path d="M82.7,6.3a0.3,0.3,0,0,1-.6,0L82,6.1a2.21,2.21,0,0,0-2.2-1.6C78.3,4.5,77,5.6,77,8s1.4,3.6,3.1,3.6a3.77,3.77,0,0,0,2.1-.6,0.37,0.37,0,0,1,.6.2,0.74,0.74,0,0,1-.6.6,5.74,5.74,0,0,1-2.2.4c-2.1,0-3.8-1.4-3.8-4.2s1.6-4.2,3.6-4.2a3.11,3.11,0,0,1,2.3,1l0.1-.7a0.3,0.3,0,0,1,.6,0Z"/><path d="M86.1,0.4a0.74,0.74,0,0,1,.8.8,0.86,0.86,0,0,1-.8.8,0.74,0.74,0,0,1-.8-0.8A0.73,0.73,0,0,1,86.1.4M86.2,4a0.27,0.27,0,0,1,.3.3v7.1h1.2a0.27,0.27,0,0,1,.3.3,0.32,0.32,0,0,1-.3.3H84.6a0.27,0.27,0,0,1-.3-0.3,0.32,0.32,0,0,1,.3-0.3h1.1V4.6H84.6a0.27,0.27,0,0,1-.3-0.3A0.32,0.32,0,0,1,84.6,4h1.6Z"/><path d="M90.2,7.3h5.2c0-1.9-1-2.8-2.4-2.8a2.86,2.86,0,0,0-2.8,2.8M93,3.9a3.05,3.05,0,0,1,3.2,3.4V7.4c0,0.4-.2.5-0.6,0.5H90.2V8c0,2.5,1.5,3.6,3.2,3.6a3.77,3.77,0,0,0,2.1-.6,0.37,0.37,0,0,1,.6.2,0.74,0.74,0,0,1-.6.6,5.74,5.74,0,0,1-2.2.4,3.88,3.88,0,0,1-4-4.2c0-2.7,1.7-4.1,3.7-4.1"/><path d="M101.2,11.4a0.27,0.27,0,0,1,.3.3,0.32,0.32,0,0,1-.3.3H98.1a0.27,0.27,0,0,1-.3-0.3,0.32,0.32,0,0,1,.3-0.3h1.2V4.6H98.1a0.27,0.27,0,0,1-.3-0.3A0.32,0.32,0,0,1,98.1,4h1.6a0.27,0.27,0,0,1,.3.3V5.5a7,7,0,0,1,3.8-1.7A1.92,1.92,0,0,1,106,6v5.4h1.1a0.27,0.27,0,0,1,.3.3,0.32,0.32,0,0,1-.3.3H104a0.27,0.27,0,0,1-.3-0.3,0.32,0.32,0,0,1,.3-0.3h1.1V6a1.25,1.25,0,0,0-1.4-1.5c-1.2,0-2.3.7-3.8,1.7v5.2h1.3Z"/><path d="M115.4,6.3a0.27,0.27,0,0,1-.3.3,0.42,0.42,0,0,1-.4-0.3l-0.1-.2a2.21,2.21,0,0,0-2.2-1.6c-1.5,0-2.8,1.1-2.8,3.5s1.4,3.6,3.1,3.6a3.77,3.77,0,0,0,2.1-.6,0.37,0.37,0,0,1,.6.2,0.74,0.74,0,0,1-.6.6,5.74,5.74,0,0,1-2.2.4c-2.1,0-3.8-1.4-3.8-4.2s1.6-4.2,3.6-4.2a3.11,3.11,0,0,1,2.3,1l0.1-.7a0.3,0.3,0,0,1,.6,0V6.3Z"/><path d="M118.1,7.3h5.2c0-1.9-1-2.8-2.4-2.8a2.79,2.79,0,0,0-2.8,2.8m2.8-3.4a3.05,3.05,0,0,1,3.2,3.4V7.4c0,0.4-.2.5-0.6,0.5h-5.4V8c0,2.5,1.5,3.6,3.2,3.6a3.77,3.77,0,0,0,2.1-.6,0.37,0.37,0,0,1,.6.2,0.74,0.74,0,0,1-.6.6,5.74,5.74,0,0,1-2.2.4,3.88,3.88,0,0,1-4-4.2c0-2.7,1.6-4.1,3.7-4.1"/><rect class="cls-2" width="124" height="15.7"/></svg>