<svg id="Layer_1" data-name="Layer 1" xmlns="http://www.w3.org/2000/svg" viewBox="0 0 23.1 20.1"><defs><style>.cls-1{fill:#b2d235;}</style></defs><title>vector_elements</title><path class="cls-1" d="M11.5,20.1H11.3L6.2,18,0.7,19.7a0.48,0.48,0,0,1-.5-0.1A0.76,0.76,0,0,1,0,19.2V3.1A0.55,0.55,0,0,1,.3,2.6L6,0.1a0.3,0.3,0,0,1,.4,0l5.3,2a0.66,0.66,0,0,1,.4.5v17a0.76,0.76,0,0,1-.2.5H11.5ZM6.1,16.8H6.3l4.6,1.9V2.9L6.1,1.1,0.9,3.3v15l5-1.5H6.1Z"/><path class="cls-1" d="M6.1,17.9a0.47,0.47,0,0,1-.5-0.5V0.6a0.5,0.5,0,0,1,1,0V17.4C6.8,17.7,6.5,17.9,6.1,17.9Z"/><path class="cls-1" d="M11.5,20.1a0.37,0.37,0,0,1-.3-0.1,0.76,0.76,0,0,1-.2-0.5V2.5A0.51,0.51,0,0,1,11.4,2l5.7-2h0.4l5.3,2.7a0.55,0.55,0,0,1,.3.5V19.1a0.52,0.52,0,0,1-.2.4,0.75,0.75,0,0,1-.5.1l-5.1-1.7L11.7,20C11.7,20.1,11.5,20.1,11.5,20.1ZM12,2.9V18.7l5-1.9h0.4L22,18.3V3.5L17.2,1.1Z"/><path class="cls-1" d="M17.3,17.9a0.47,0.47,0,0,1-.5-0.5V0.6a0.5,0.5,0,0,1,1,0V17.4A0.54,0.54,0,0,1,17.3,17.9Z"/></svg>