<svg id="Layer_1" data-name="Layer 1" xmlns="http://www.w3.org/2000/svg" viewBox="0 0 20.6 20.6"><defs><style>.cls-1{fill:#3aa8d8;}</style></defs><title>vector_elements</title><path class="cls-1" d="M11.2,20.6H9.4a1.17,1.17,0,0,1-1.1-.9c-0.1-.4-0.1-0.8-0.2-1.2A0.1,0.1,0,0,0,8,18.4a6.39,6.39,0,0,1-1.9-.8H6c-0.3.2-.6,0.5-0.9,0.7a1.07,1.07,0,0,1-1.4-.1L2.4,16.9a1.07,1.07,0,0,1-.1-1.4c0.2-.3.5-0.6,0.7-0.9V14.5a10.84,10.84,0,0,1-.8-1.9l-0.1-.1c-0.4-.1-0.8-0.1-1.2-0.2A1.09,1.09,0,0,1,0,11.2V9.4A1.17,1.17,0,0,1,.9,8.3c0.4-.1.8-0.1,1.2-0.2A0.1,0.1,0,0,0,2.2,8,6.39,6.39,0,0,1,3,6.1V6C2.8,5.7,2.5,5.4,2.3,5.1a1.07,1.07,0,0,1,.1-1.4L3.7,2.4a1.07,1.07,0,0,1,1.4-.1C5.4,2.5,5.7,2.8,6,3H6.1A10.84,10.84,0,0,1,8,2.2l0.1-.1c0.1-.4.1-0.8,0.2-1.2A1.09,1.09,0,0,1,9.4,0h1.8a1.17,1.17,0,0,1,1.1.9c0.1,0.4.1,0.8,0.2,1.2a0.1,0.1,0,0,0,.1.1,6.39,6.39,0,0,1,1.9.8h0.1c0.3-.2.6-0.5,0.9-0.7a1.07,1.07,0,0,1,1.4.1l1.3,1.3a1.07,1.07,0,0,1,.1,1.4c-0.2.3-.5,0.6-0.7,0.9V6.1A10.84,10.84,0,0,1,18.4,8l0.1,0.1c0.4,0.1.8,0.1,1.2,0.2a1.09,1.09,0,0,1,.9,1.1v1.8a1.17,1.17,0,0,1-.9,1.1c-0.4.1-.8,0.1-1.2,0.2a0.1,0.1,0,0,0-.1.1,6.39,6.39,0,0,1-.8,1.9v0.1c0.2,0.3.5,0.6,0.7,0.9a1.07,1.07,0,0,1-.1,1.4l-1.3,1.3a1.07,1.07,0,0,1-1.4.1c-0.3-.2-0.6-0.5-0.9-0.7H14.5a10.84,10.84,0,0,1-1.9.8l-0.1.1c-0.1.4-.1,0.8-0.2,1.2A1.17,1.17,0,0,1,11.2,20.6Zm-5.1-4a0.75,0.75,0,0,1,.5.1,8.65,8.65,0,0,0,1.7.7,1.22,1.22,0,0,1,.8.9c0.1,0.4.1,0.8,0.2,1.2a0.1,0.1,0,0,0,.1.1h1.8c0.1,0,.1,0,0.1-0.1,0.1-.4.1-0.8,0.2-1.2a1.22,1.22,0,0,1,.8-0.9,8.65,8.65,0,0,0,1.7-.7,1.06,1.06,0,0,1,1.2.1c0.3,0.2.6,0.5,0.9,0.7h0.2l1.3-1.3V16c-0.2-.3-0.5-0.6-0.7-0.9a1,1,0,0,1-.1-1.2,8.65,8.65,0,0,0,.7-1.7,1.22,1.22,0,0,1,.9-0.8c0.4-.1.8-0.1,1.2-0.2a0.1,0.1,0,0,0,.1-0.1V9.3c0-.1,0-0.1-0.1-0.1-0.4-.1-0.8-0.1-1.2-0.2a1.22,1.22,0,0,1-.9-0.8,8.65,8.65,0,0,0-.7-1.7,1.06,1.06,0,0,1,.1-1.2c0.2-.3.5-0.6,0.7-0.9V4.2L16.3,2.9H16.1c-0.3.2-.6,0.5-0.9,0.7a1,1,0,0,1-1.2.1A8.65,8.65,0,0,0,12.3,3a1.22,1.22,0,0,1-.8-0.9c-0.1-.4-0.1-0.8-0.2-1.2A0.1,0.1,0,0,0,11.2.8H9.4c-0.1,0-.1,0-0.1.1-0.1.4-.1,0.8-0.2,1.2a1.22,1.22,0,0,1-.8.9,8.65,8.65,0,0,0-1.7.7,1.06,1.06,0,0,1-1.2-.1C5.1,3.4,4.8,3.1,4.5,2.9H4.3L3,4.2V4.4C3.2,4.7,3.5,5,3.7,5.3a1,1,0,0,1,.1,1.2,8.65,8.65,0,0,0-.7,1.7,1.22,1.22,0,0,1-.9.8C1.8,9.1,1.4,9.1,1,9.2a0.1,0.1,0,0,0-.1.1v1.8c0,0.1,0,.1.1,0.1,0.4,0.1.8,0.1,1.2,0.2a1.22,1.22,0,0,1,.9.8,8.65,8.65,0,0,0,.7,1.7,1.06,1.06,0,0,1-.1,1.2c-0.2.3-.5,0.6-0.7,0.9v0.2l1.3,1.3H4.5c0.3-.2.6-0.5,0.9-0.7A1.85,1.85,0,0,1,6.1,16.6Z"/><path class="cls-1" d="M10.3,14.8a4.5,4.5,0,1,1,4.5-4.5A4.55,4.55,0,0,1,10.3,14.8Zm0-8a3.5,3.5,0,1,0,3.5,3.5A3.54,3.54,0,0,0,10.3,6.8Z"/></svg>