<svg id="Layer_1" data-name="Layer 1" xmlns="http://www.w3.org/2000/svg" viewBox="0 0 20 20"><defs><style>.cls-1{fill:#f37321;}</style></defs><title>vector_elements</title><path class="cls-1" d="M18,14.1H14.5a19.82,19.82,0,0,0,.4-3.6H19a10.68,10.68,0,0,1-1,3.6m-5.5,4.5a5.55,5.55,0,0,0,1.1-1.7,7.51,7.51,0,0,0,.7-1.8h3.1a9.14,9.14,0,0,1-4.9,3.5m-2,.2V15.1h2.6c-0.6,2-1.6,3.4-2.6,3.7m0-8.3h3.3a18.84,18.84,0,0,1-.4,3.6H10.5V10.5Zm0-4.6h2.9a14.2,14.2,0,0,1,.4,3.6H10.5V5.9Zm0-4.8a4.26,4.26,0,0,1,2.1,2.4,5.78,5.78,0,0,1,.5,1.4H10.5V1.1Zm6.9,3.7H14.2A13.36,13.36,0,0,0,13.5,3a5.55,5.55,0,0,0-1.1-1.7,9.55,9.55,0,0,1,5,3.5m1.5,4.7H14.8a20.88,20.88,0,0,0-.4-3.6h3.5a7.49,7.49,0,0,1,1,3.6M9.5,4.8H6.9c0.2-.5.3-0.9,0.5-1.4A4.64,4.64,0,0,1,9.5,1V4.8Zm0,4.7H6.2a20.88,20.88,0,0,1,.4-3.6H9.5V9.5Zm0,4.6H6.6a18.84,18.84,0,0,1-.4-3.6H9.5v3.6Zm0,4.8c-1-.3-2-1.7-2.6-3.8H9.5v3.8ZM2.7,15.1H5.8a9.63,9.63,0,0,0,.7,1.8,5.55,5.55,0,0,0,1.1,1.7,8.79,8.79,0,0,1-4.9-3.5M1,10.5H5.1a19.82,19.82,0,0,0,.4,3.6H2a10.68,10.68,0,0,1-1-3.6M2,5.9H5.5a20.88,20.88,0,0,0-.4,3.6H1A10.68,10.68,0,0,1,2,5.9M7.6,1.3A5.55,5.55,0,0,0,6.5,3a13.35,13.35,0,0,0-.7,1.8H2.7A9.29,9.29,0,0,1,7.6,1.3M10,0A10,10,0,1,0,20,10,10,10,0,0,0,10,0"/></svg>